<svg width="78" height="60" viewBox="0 0 78 60" fill="none" xmlns="http://www.w3.org/2000/svg">
<path opacity="0.5" d="M53.1254 34.6737C49.1358 40.2349 40.8642 40.2349 36.8746 34.6737L23.3557 15.8291C18.609 9.2125 23.3379 -1.90735e-06 31.481 -1.90735e-06L58.519 -1.90735e-06C66.6621 -1.90735e-06 71.391 9.21248 66.6444 15.8291L53.1254 34.6737Z" fill="#0369A1"/>
<path d="M16 51.2158L18.2658 48.8879C21.4052 45.6624 26.5866 45.6608 29.728 48.8844L32 51.2158" stroke="#78350F" stroke-width="1.5" stroke-linecap="square" stroke-linejoin="round"/>
<line x1="15" y1="52.25" x2="33" y2="52.25" stroke="#78350F" stroke-width="1.5"/>
<path d="M37.304 12.1C37.2742 12.2855 37.2395 12.4988 37.1999 12.7378C37.0415 13.694 36.805 15.0611 36.4932 16.7022C35.8691 19.9859 34.9447 24.3584 33.7419 28.7259C32.5366 33.1026 31.0626 37.4336 29.3502 40.6558C28.4933 42.2683 27.5967 43.5643 26.6744 44.4481C25.7533 45.3308 24.8642 45.75 24 45.75H23.9999H23.9715H23.9542H23.9476H23.9431H23.9147H23.8959H23.8914H23.8864H23.8581H23.8448H23.8299H23.828H23.8017H23.7943H23.7736H23.7638H23.7455H23.7446H23.7175H23.6989H23.6954H23.6895H23.6617H23.647H23.6339H23.6333H23.6061H23.5991H23.5785H23.567H23.5519H23.5509H23.5234H23.5054H23.5C21.0583 45.75 18.9703 43.8857 17.1969 40.6476C15.4433 37.4455 14.1335 33.1336 13.1699 28.7635C12.2089 24.4046 11.6031 20.0392 11.2376 16.7591C11.055 15.1203 10.9326 13.755 10.856 12.8003C10.8346 12.5339 10.8168 12.2994 10.8022 12.1H37.304Z" stroke="#78350F" stroke-width="1.5"/>
<path d="M10.8246 12.2772C10.8246 12.2772 5.77539 10 4.51308 10C3.25077 10 1.98848 10.9109 1.98848 10.9109C0.557286 13.0206 0.788803 16.5785 1.98848 19.1087C10.4038 30.0391 13.6297 30.95 13.77 30.95" stroke="#78350F" stroke-width="1.5"/>
<path d="M35.9454 12.2772C35.9454 12.2772 40.9946 10 42.2569 10C43.5192 10 44.7815 10.9109 44.7815 10.9109C46.2127 13.0206 45.9812 16.5785 44.7815 19.1087C36.3662 30.0391 33.1403 30.95 33 30.95" stroke="#78350F" stroke-width="1.5"/>
</svg>
